<?xml version="1.0" encoding="utf-8"?>
<!-- Generator: Adobe Illustrator 28.3.0, SVG Export Plug-In . SVG Version: 6.00 Build 0)  -->
<svg version="1.1" id="Layer_1" xmlns="http://www.w3.org/2000/svg" xmlns:xlink="http://www.w3.org/1999/xlink" x="0px" y="0px"
	 viewBox="0 0 798.9 237.4" style="enable-background:new 0 0 798.9 237.4;" xml:space="preserve">
<rect x="354.1" y="55.9" width="27" height="86.7"/>
<rect x="416.5" width="198.6" height="198.6"/>
<g>
	<path d="M215.6,121.4h-5c-5.5,0-10.3-0.6-14.3-1.9s-7.1-3.3-9.2-5.9c-2.2-2.7-3.2-6-3.2-10c0-1.9,0.2-3.7,0.7-5.5
		c0.5-1.7,1.1-3.4,1.7-5l7.8,2.9c-0.4,1-0.7,2.1-1,3.4c-0.3,1.3-0.5,2.5-0.5,3.6c0,3.2,1.4,5.5,4.2,7.1c2.8,1.6,7.3,2.4,13.5,2.4
		h5.1c4.4,0,7.9-0.4,10.6-1.1s4.5-1.7,5.5-2.8c0.3-0.3,0.5-0.7,0.6-1.3c0.1-0.6,0.3-1.2,0.3-2.1c0-1.1,0-2.2-0.1-3.3
		c-0.1-1.1-0.1-2.2-0.2-3.2l8.2-1l0.6,9.9c0.1,1.8,0.5,3,1.3,3.8c0.7,0.7,2,1.1,3.8,1.1h0.9v8.9H246c-4.6,0-8.1-1.8-10.5-5.4
		c-2.2,1.9-5,3.2-8.4,4.1S219.9,121.4,215.6,121.4z M201.7,90l5.6-5.5l5.6,5.5l-5.6,5.6L201.7,90z M213.2,90l5.6-5.5l5.6,5.6
		l-5.6,5.6L213.2,90z"/>
	<path d="M285.5,112.6c1,0,1.9-0.4,2.5-1.2c0.6-0.8,0.9-2.3,0.9-4.5c0-0.8,0-1.9-0.1-3.5s-0.2-3.1-0.3-4.5l8.4-1l0.6,9.9
		c0.1,1.8,0.6,3.1,1.3,3.8c0.8,0.7,2,1.1,3.6,1.1h1v8.9h-1c-1.9,0-3.7-0.3-5.2-0.9s-2.8-1.6-3.7-2.9c-1.9,2.5-4.6,3.8-8,3.8
		c-3.7,0-6.5-1.3-8.4-4c-2.5,2.7-5.5,4-9.3,4c-2,0-3.8-0.3-5.4-1c-1.5-0.6-2.8-1.6-3.8-3c-1.2,1.4-2.7,2.4-4.6,3
		c-1.8,0.6-4,0.9-6.4,0.9h-2.4v-8.9h2.4c2.6,0,4.4-0.4,5.4-1.2c1-0.8,1.5-2.3,1.5-4.6c0-0.5,0-1.5-0.1-3.1c-0.1-1.5-0.2-2.9-0.3-4.2
		l8.4-1l0.6,9.2c0.1,1.6,0.5,2.8,1.3,3.7c0.7,0.8,1.8,1.3,3.3,1.3c1.9,0,3.2-0.4,3.9-1.3c0.7-0.9,1.1-2.4,1.1-4.5
		c0-0.3,0-0.9-0.1-1.7c0-0.8-0.1-1.8-0.2-2.8s-0.1-1.9-0.2-2.8l8.4-1l0.6,9.2C281.7,110.9,283,112.6,285.5,112.6z"/>
	<path d="M302,83.9l5.6-5.5l5.6,5.5l-5.6,5.6L302,83.9z M321.8,93.2c0.6,1.9,1.1,4,1.4,6.3c0.4,2.3,0.5,4.4,0.5,6.3
		c0,5.4-1.4,9.3-4.2,11.8c-2.8,2.5-6.9,3.7-12.4,3.7h-5v-8.9h5.1c2.2,0,3.8-0.1,5-0.4s1.9-0.9,2.4-1.8c0.4-0.9,0.6-2.4,0.6-4.3
		c0-1.5-0.2-3.2-0.5-5.2s-0.7-3.9-1.1-5.5L321.8,93.2z M313.5,83.9l5.6-5.5l5.6,5.6l-5.6,5.6L313.5,83.9z"/>
</g>
<rect y="227" width="798.9" height="10.4"/>
</svg>
