<?xml version="1.0" encoding="utf-8"?>
<!-- Generator: Adobe Illustrator 28.3.0, SVG Export Plug-In . SVG Version: 6.00 Build 0)  -->
<svg version="1.1" id="Layer_1" xmlns="http://www.w3.org/2000/svg" xmlns:xlink="http://www.w3.org/1999/xlink" x="0px" y="0px"
	 viewBox="0 0 1000 1000" style="enable-background:new 0 0 1000 1000;" xml:space="preserve">
<g>
	<path d="M50.4,360C22.8,360,0,337.3,0,309.7V130.9C0.4,59.5,58.3,0.4,131,0.4h179.2c27.6,0,50.4,22.8,50.4,50.4
		s-22.8,50.4-50.4,50.4H131c-16.6,0-30.2,13.6-30.2,30.2v179.2C100.3,337.7,78,360,50.4,360z"/>
</g>
<g>
	<path d="M949.3,360c-27.6,0-50.4-22.8-50.4-50.4V130.9c0-16.6-13.6-30.2-30.2-30.2H689.5c-27.6,0-50.4-22.8-50.4-50.4
		S661,0.4,690,0.4h179.2c71.8,0,130.5,58.7,130.5,130.5v179.2C999.7,337.7,976.9,360,949.3,360z"/>
</g>
<g>
	<path d="M310.1,999.6H131c-72.3,0-130.5-58.7-130.5-130.5V689.9c0-27.6,22.8-50.4,50.4-50.4s50.4,22.8,50.4,50.4v179.2
		c0,16.6,13.6,30.2,30.2,30.2h178.7c27.6,0,50.4,22.8,50.4,50.4S337.7,999.6,310.1,999.6z"/>
</g>
<g>
	<path d="M869.1,999.6H690c-27.6,0-50.4-22.8-50.4-50.4c0-27.6,22.8-50.4,50.4-50.4h179.2c16.6,0,30.2-13.6,30.2-30.2V689.9
		c0-27.6,22.8-50.4,50.4-50.4c27.6,0,50.4,22.8,50.4,50.4v179.2C999.7,941.3,941,999.6,869.1,999.6z"/>
</g>
<path d="M619.9,458.6h145.4c41.6,0,75.3-33.7,75.3-75.3V237.8c0-41.6-33.7-75.3-75.3-75.3H619.9c-41.6,0-75.3,33.7-75.3,75.3v145.4
	C544.5,424,578.2,458.6,619.9,458.6z"/>
<path d="M237,458.6h145.4c41.6,0,75.3-33.7,75.3-75.3V237.8c0-41.6-33.7-75.3-75.3-75.3H237c-41.6,0-75.3,33.7-75.3,75.3v145.4
	C161.6,424,195.4,458.6,237,458.6z"/>
<path d="M237,838.4h145.4c41.6,0,75.3-33.7,75.3-75.3V617.6c0-41.6-33.7-75.3-75.3-75.3H237c-41.6,0-75.3,33.7-75.3,75.3v145.4
	C161.6,804.7,195.4,838.4,237,838.4z"/>
<g>
	<path d="M765.7,617.2L765.7,617.2v145.4H620.3V617.2H765.7 M765.7,541.8H620.3c-41.6,0-75.3,33.7-75.3,75.3v145.4
		c0,41.6,33.7,75.3,75.3,75.3h145.4c41.6,0,75.3-33.7,75.3-75.3V617.2C841.5,575.6,807.4,541.8,765.7,541.8L765.7,541.8z"/>
</g>
</svg>
