<?xml version="1.0" encoding="utf-8"?>
<!-- Generator: Adobe Illustrator 28.3.0, SVG Export Plug-In . SVG Version: 6.00 Build 0)  -->
<svg version="1.1" id="Layer_1" xmlns="http://www.w3.org/2000/svg" xmlns:xlink="http://www.w3.org/1999/xlink" x="0px" y="0px"
	 viewBox="0 0 1000 885.9" style="enable-background:new 0 0 1000 885.9;" xml:space="preserve">
<style type="text/css">
	.st0{fill-rule:evenodd;clip-rule:evenodd;fill:#02B7FF;}
	.st1{fill-rule:evenodd;clip-rule:evenodd;fill:#FFFFFF;}
</style>
<path class="st0" d="M872.7,221.3c-3.4,10.3-2.3,20.1,4,29.2c6.3,9.2,15.5,13.8,26.4,13.8h96.9l-91.7-142.8L872.7,221.3z
	 M646.2,765.5h174.3l170.3-473.6h-87.2c-19.5,0-37.3-9.2-48.7-25.2c-10.9-16.1-14.3-36.1-7.5-54.5l32.7-90.6H646.2v117h61.4
	c16.1,0,29.2,13.2,29.2,29.2S723.6,297,707.6,297h-61.4v59.1h201.8c16.1,0,29.2,13.2,29.2,29.2c0,16.1-13.2,29.2-29.2,29.2H646.2
	v59.1h158.3c16.1,0,29.2,13.2,29.2,29.2c0,16.1-13.2,29.2-29.2,29.2H646.2v59.1H762c16.1,0,29.2,13.2,29.2,29.2
	s-13.2,29.2-29.2,29.2H646.2V765.5L646.2,765.5z"/>
<path class="st1" d="M29.2,706.4H574v59.1H29.2C13.2,765.5,0,752.3,0,736.2C0,719.6,13.2,706.4,29.2,706.4"/>
<path class="st1" d="M213.3,589.4h85.4c16.1,0,29.2,13.2,29.2,29.2s-13.2,29.2-29.2,29.2h-85.4c-16.1,0-29.2-13.2-29.2-29.2
	C184.1,602.6,197.2,589.4,213.3,589.4"/>
<path class="st1" d="M142.8,589.4h-28.7c-16.1,0-29.2,13.2-29.2,29.2s13.2,29.2,29.2,29.2h28.7c16.1,0,29.2-13.2,29.2-29.2
	C172,602.6,158.8,589.4,142.8,589.4"/>
<path class="st1" d="M211.6,471.9h127.9c16.1,0,29.2,13.2,29.2,29.2c0,16.1-13.2,29.2-29.2,29.2H211.6c-16.1,0-29.2-13.2-29.2-29.2
	C182.3,485.1,195.5,471.9,211.6,471.9"/>
<path class="st1" d="M345.8,355.5H383c16.1,0,29.2,13.2,29.2,29.2c0,16.1-13.2,29.2-29.2,29.2h-37.3c-16.1,0-29.2-13.2-29.2-29.2
	S329.7,355.5,345.8,355.5"/>
<path class="st1" d="M256.3,355.5H95.2c-16.1,0-29.2,13.2-29.2,29.2c0,16.1,13.2,29.2,29.2,29.2h161.1c16.1,0,29.2-13.2,29.2-29.2
	S272.9,355.5,256.3,355.5"/>
<path class="st1" d="M269.5,238.5h154.2c16.1,0,29.2,13.2,29.2,29.2S439.8,297,423.7,297H269.5c-16.1,0-29.2-13.2-29.2-29.2
	C239.7,251.7,252.9,238.5,269.5,238.5"/>
<path class="st1" d="M165.1,121h68.2c16.1,0,29.2,13.2,29.2,29.2s-13.2,29.2-29.2,29.2h-68.2c-16.1,0-29.2-13.2-29.2-29.2
	C135.9,134.2,149.1,121,165.1,121"/>
<path class="st1" d="M321.7,121h265.5V180H321.7c-16.1,0-29.2-13.2-29.2-29.2S305,121,321.7,121"/>
<path class="st1" d="M589.4,0L589.4,0c16.1,0,29.2,13.2,29.2,29.2v827.4c0,16.1-13.2,29.2-29.2,29.2s-29.2-13.2-29.2-29.2V29.2
	C559.6,13.2,572.8,0,589.4,0"/>
</svg>
