<?xml version="1.0" encoding="utf-8"?>
<!-- Generator: Adobe Illustrator 28.3.0, SVG Export Plug-In . SVG Version: 6.00 Build 0)  -->
<svg version="1.1" id="Layer_1" xmlns="http://www.w3.org/2000/svg" xmlns:xlink="http://www.w3.org/1999/xlink" x="0px" y="0px"
	 viewBox="0 0 734.3 1000" style="enable-background:new 0 0 734.3 1000;" xml:space="preserve">
<style type="text/css">
	.st0{display:none;fill:#F6A142;}
	.st1{fill:#0A687B;}
	.st2{fill:#09576A;}
	.st3{fill:none;stroke:#FFFFFF;stroke-width:50;stroke-linecap:round;stroke-linejoin:round;stroke-miterlimit:10;}
	.st4{fill:none;stroke:#FFFFFF;stroke-width:20;stroke-linecap:round;stroke-miterlimit:10;}
	.st5{fill:#ED1C24;}
</style>
<path class="st0" d="M367,999.9c-165.1,0-330.2,0-495.3,0.1c-3.8,0-4.7-0.9-4.7-4.7c0.1-330.2,0.1-660.4,0-990.6
	c0-3.8,0.9-4.7,4.7-4.7c330.2,0.1,660.4,0.1,990.6,0c3.8,0,4.7,0.9,4.7,4.7c-0.1,330.2-0.1,660.4,0,990.6c0,3.8-0.9,4.7-4.7,4.7
	C697.2,999.9,532.1,999.9,367,999.9z"/>
<path class="st1" d="M338.9,39.9c-84.6,53.4-182.2,88-287.5,98.1c-13.5,1.4-24,13-24,26.4c0,90.4,0,268.3,0,390.9
	c0,107.7,50,209.1,135.1,275c72.1,55.3,137,102.4,173.6,128.4c9.1,6.7,20.2,10.1,30.8,10.1V31.7C357.1,31.7,347.5,34.1,338.9,39.9z"
	/>
<path class="st2" d="M398,958.2c36.5-26,101.4-72.6,173.6-128.4c85.1-65.4,135.1-167.3,135.1-275c0-123.1,0-301,0-390.9
	c0-13.5-10.6-25-24-26.4c-104.8-10.1-202.9-44.7-287.5-98.1c-8.7-5.3-18.3-8.2-27.9-8.2v936.6C377.8,968.3,388.4,964.9,398,958.2z"
	/>
<path class="st3" d="M706.7,529.3c0-109.6,0-250.5,0-339c0-27.9-20.7-51.9-48.6-55.3c-95.7-12.5-184.6-46.2-263-95.2
	c-8.7-5.3-18.3-8.2-28.4-8.2c0,0.5,0,1,0,1V326c67.8,0,125,45.2,142.3,107.2"/>
<path class="st4" d="M722.6,661.5"/>
<circle class="st5" cx="367.7" cy="473.1" r="72.6"/>
<path class="st3" d="M278.3,590.9c24.5,18.8,55.8,29.8,88.9,29.8c61.1,0,113.5-37,136.1-89.9c56.3,27.9,136.1,67.3,195.7,97.1
	c-7.2,34.1-19.7,66.8-36.5,97.1c-22.6,40.4-53.4,76.4-91.3,105.3C499,885.6,434,932.7,397.5,958.7c-18.3,13-43.3,13-61.5,0
	c-36.5-26-101.4-73.1-173.6-128.4C124.9,801.5,94.6,765.9,72,726"/>
<path class="st3" d="M276.4,357.2c-34.6,26.9-56.7,68.8-56.7,116.4c0,14.9,2.4,29.3,6.3,42.8c-46.6,23.1-126.9,63-193.8,96.2
	c-2.9-18.8-4.8-37.5-4.8-56.7c0-112,0-269.7,0-365.4c0-27.9,20.7-51.4,48.6-55.3c61.1-8.2,119.2-24.5,173.6-48.1"/>
</svg>
