<?xml version="1.0" encoding="utf-8"?>
<!-- Generator: Adobe Illustrator 28.3.0, SVG Export Plug-In . SVG Version: 6.00 Build 0)  -->
<svg version="1.1" id="Layer_1" xmlns="http://www.w3.org/2000/svg" xmlns:xlink="http://www.w3.org/1999/xlink" x="0px" y="0px"
	 viewBox="0 0 1000 882.6" style="enable-background:new 0 0 1000 882.6;" xml:space="preserve">
<style type="text/css">
	.st0{fill:#FFFFFF;}
</style>
<path class="st0" d="M892.3,231.2H844c-3.6-22.9-10.3-45.2-20-66.6c-14.7-32.3-35.6-61.2-62.1-86.1C707.7,27.9,636.2,0,560.5,0h-121
	c-75.7,0-147.2,27.9-201.3,78.5c-26.6,24.9-47.5,53.8-62.1,86.1c-9.8,21.5-16.4,43.8-20,66.6h-48.4C49,231.2,1.3,278.9,1.3,337.5
	v180.7c0,58.6,47.7,106.3,106.3,106.3h45.8c7.1,109.5,101.6,196.9,218,200.1c16.7,34.4,52,58.1,92.7,58.1h73
	c56.8,0,103-46.2,103-103c0-56.8-46.2-103-103-103h-73c-40.6,0-75.8,23.6-92.5,57.8C300.1,731.4,243,677.3,243,611.3V270.9
	C243,171.2,331.1,90,439.5,90h121C668.9,90,757,171.2,757,270.9v353.5h135.4c58.6,0,106.3-47.7,106.3-106.3V337.5
	C998.7,278.9,951,231.2,892.3,231.2z M91.3,518.2V337.5c0-8.8,7.5-16.3,16.4-16.3H153v213.2h-45.4C98.8,534.4,91.3,527,91.3,518.2z
	 M464.1,746.6h73c18.2,0,33,14.8,33,33c0,18.2-14.8,33-33,33h-73c-18.2,0-33-14.8-33-33C431.1,761.4,445.9,746.6,464.1,746.6z
	 M908.7,518.2c0,8.8-7.5,16.3-16.3,16.3H847V321.2h45.3c8.9,0,16.4,7.5,16.4,16.3V518.2z"/>
<path class="st0" d="M577.2,527.4l-96-254.3c-4-10.3-13.6-17-24.5-17h-18.1c-10.8,0-20.7,6.8-24.5,16.9l-95.7,254.3
	c-3.5,9.3-2.2,19.7,3.4,27.9c5.7,8.2,15,13.1,24.9,13.1c12.9,0,24.5-8.2,28.7-20.4l17.4-50.4h109.9L520,548
	c4.2,12.2,15.8,20.4,28.7,20.4h0.2c10,0,19.3-4.9,24.9-13.1C579.5,547.2,580.8,536.7,577.2,527.4z M410.5,446.3l37.2-107.9
	l37.3,107.9H410.5z"/>
<path class="st0" d="M679.9,287.2v250.1c0,17.1-13.9,31.1-31.1,31.1s-31.1-13.9-31.1-31.1V287.2c0-17.1,13.9-31.1,31.1-31.1
	S679.9,270.1,679.9,287.2z"/>
</svg>
