<?xml version="1.0" encoding="utf-8"?>
<!-- Generator: Adobe Illustrator 28.3.0, SVG Export Plug-In . SVG Version: 6.00 Build 0)  -->
<svg version="1.1" id="Layer_1" xmlns="http://www.w3.org/2000/svg" xmlns:xlink="http://www.w3.org/1999/xlink" x="0px" y="0px"
	 viewBox="0 0 1000 930.7" style="enable-background:new 0 0 1000 930.7;" xml:space="preserve">
<style type="text/css">
	.st0{fill:#00643C;}
	.st1{fill:#00643C;stroke:#FF0000;stroke-width:0.25;stroke-miterlimit:10;}
</style>
<path class="st0" d="M7.6,557.8l-0.4,1.6C2.5,580.1,0,601.7,0,623.9c0,111,62.6,207.4,154.4,255.8c21,11.1,43.5,19.6,67.2,25.3
	c-30-13.9-50.8-44.2-50.8-79.5c0-5.8,0.6-11.5,1.6-17c0,0,0-0.1,0-0.1l109.3-473.6l39.8-172.3H98.8L7.6,557.8z"/>
<path class="st1" d="M652.3,760.4c-0.2,0.9-0.4,1.8-0.6,2.7v0c-17,71.1-72.6,127.2-143.4,144.8c41-6.1,80.4-17.2,117.5-32.8
	c139.1-58.4,245.7-178.8,285.1-326.7l7.4-31.9l81.8-354H790.4L652.3,760.4z"/>
<path class="st0" d="M705.9,363.4c0,239.8-126.9,450-317.3,567.1l-0.4,0.3c-0.3-0.3-0.5-0.7-0.8-1c-36.2-50-65.2-105.5-85.8-164.9
	C279.2,699.5,267,629.5,267,556.6C267,317.5,398.6,109.1,593.4,0c40.1,55.3,68.9,119.3,83.1,188.7
	c-211.4,53.9-367.7,245.6-367.7,473.8c0,33.6,3.4,66.5,9.9,98.2c12.5,61.1,36.3,118.1,69.3,168.6C522.3,836.7,610.4,681.6,610.4,506
	c0-89.2-22.7-173-62.7-246.1c42.2-26.5,88.6-46.9,137.9-60.3C698.9,252.1,705.9,306.9,705.9,363.4z"/>
</svg>
