<?xml version="1.0" encoding="utf-8"?>
<!-- Generator: Adobe Illustrator 28.3.0, SVG Export Plug-In . SVG Version: 6.00 Build 0)  -->
<svg version="1.1" id="Layer_1" xmlns="http://www.w3.org/2000/svg" xmlns:xlink="http://www.w3.org/1999/xlink" x="0px" y="0px"
	 viewBox="0 0 1000 700" style="enable-background:new 0 0 1000 700;" xml:space="preserve">
<style type="text/css">
	.st0{fill:#FFFFFF;}
</style>
<path class="st0" d="M979.1,109.3c-11.5-43-45.4-76.9-88.4-88.4C812.7,0,500,0,500,0S187.3,0,109.3,20.9
	c-43,11.5-76.9,45.4-88.4,88.4C0,187.3,0,350,0,350s0,162.7,20.9,240.7c11.5,43,45.4,76.9,88.4,88.4C187.3,700,500,700,500,700
	s312.7,0,390.7-20.9c43-11.5,76.9-45.4,88.4-88.4C1000,512.7,1000,350,1000,350S1000,187.3,979.1,109.3z M400,500V200l259.8,150
	L400,500z"/>
</svg>
