<?xml version="1.0" encoding="utf-8"?>
<!-- Generator: Adobe Illustrator 28.3.0, SVG Export Plug-In . SVG Version: 6.00 Build 0)  -->
<svg version="1.1" id="Layer_1" xmlns="http://www.w3.org/2000/svg" xmlns:xlink="http://www.w3.org/1999/xlink" x="0px" y="0px"
	 viewBox="0 0 842.6 1000" style="enable-background:new 0 0 842.6 1000;" xml:space="preserve">
<style type="text/css">
	.st0{fill-rule:evenodd;clip-rule:evenodd;fill:#FFFFFF;}
	.st1{fill:#FFFFFF;}
</style>
<polygon class="st0" points="710.8,644.6 799.6,644.6 799.6,1000 0,1000 0,644.6 88.8,644.6 88.8,911.2 710.8,911.2 "/>
<path class="st1" d="M185.7,618.2L622,709.9l18.3-87.2L204,530.9L185.7,618.2z M243.4,409.3l404.2,188.3l37.7-80.8L281.1,328.4
	L243.4,409.3z M355.3,210.9L698,496.3l57.1-68.5L412.3,142.4L355.3,210.9z M576.5,0l-71.6,53.2L771,411l71.6-53.2L576.5,0z
	 M177.7,822.3h444.2v-88.8H177.7V822.3z"/>
</svg>
